# xmcd CD database file
#
# Track frame offsets:
#	150
#	14680
#	31407
#	49015
#	65050
#	83047
#	99125
#	113137
#	132095
#	148265
#	163967
#	183087
#	197722
#	214222
#
# Disc length: 3068 seconds
#
# Revision: 0
# Processed by: cddbd v1.5.1PL0 Copyright (c) Steve Scherf et al.
# Submitted via: CDex 1.40Release
#
DISCID=c70bfa0e
DTITLE=Phil Vassar - American Child (Rerelease)
DYEAR=2002
DGENRE=Country
TTITLE0=American Child
TTITLE1=Forgettin's So Long
TTITLE2=Time's Wastin'
TTITLE3=I'm Already Gone
TTITLE4=Athens Grease
TTITLE5=Baby, You're Right
TTITLE6=Ultimate Love
TTITLE7=Stand Still
TTITLE8=Someone You Love
TTITLE9=Houston
TTITLE10=I Thought I Never Would Forget
TTITLE11=Working For A Living
TTITLE12=I'll Be The One
TTITLE13=This Is God
EXTD=YEAR: 2002 ID3G: 2
EXTT0=
EXTT1=
EXTT2=
EXTT3=
EXTT4=
EXTT5=
EXTT6=
EXTT7=
EXTT8=
EXTT9=
EXTT10=
EXTT11=
EXTT12=
EXTT13=
PLAYORDER=
